<svg width="157" height="137" viewBox="0 0 157 137" fill="none" xmlns="http://www.w3.org/2000/svg">
<path d="M72.9508 0C72.9508 0.0077229 72.9508 0.0154458 72.951 0.0224025C64.0571 0.0378483 55.1624 0.0440306 46.2731 0.112783C45.0062 0.122441 42.9332 0.227882 41.7677 0.714723C40.897 1.07837 40.1041 1.5841 39.411 2.20212C36.9381 4.40753 36.0566 10.205 36.2479 13.5693C36.3174 14.7736 36.4426 15.9785 36.5955 17.1816C37.0362 20.6515 37.852 26.2844 38.9005 29.6183C39.4757 31.4465 40.1626 33.2424 40.916 35.0114C42.4677 38.6552 45.69 44.22 48.1921 47.2888C50.1308 49.6668 55.7055 54.0793 60.6244 58.296C60.9374 58.5695 61.2624 58.8284 61.5704 59.1074C62.3425 59.807 63.3522 60.7229 64.3206 61.6901C64.8649 62.2693 65.387 62.869 65.8714 63.5036C66.6676 64.5472 67.7912 66.4013 67.9566 67.7239C67.9566 67.7571 67.9759 67.7893 67.9759 67.8223C67.9953 67.9894 67.9759 68.1545 67.9759 68.3206C67.9758 68.4866 67.9953 68.6517 67.9759 68.8186C67.9759 68.8518 67.9566 68.8844 67.9566 68.9178C67.7904 70.2404 66.6676 72.0939 65.8714 73.1374C65.3876 73.7713 64.8659 74.3705 64.3222 74.9491C63.3532 75.9169 62.3431 76.8336 61.5704 77.5336C61.2624 77.8126 60.9374 78.0715 60.6244 78.345C55.7055 82.5617 50.1308 86.9742 48.1921 89.3522C45.69 92.421 42.4677 97.9858 40.916 101.63C40.1626 103.399 39.4757 105.194 38.9005 107.023C37.852 110.357 37.0362 115.989 36.5955 119.459C36.4428 120.662 36.3163 121.867 36.2479 123.072C36.0566 126.436 36.9381 132.233 39.411 134.439C40.1041 135.057 40.897 135.563 41.7677 135.926C42.9332 136.413 45.0062 136.518 46.2731 136.528C55.1624 136.597 64.0571 136.603 72.951 136.619C72.9508 136.626 72.9508 136.634 72.9508 136.641C74.6347 136.636 76.3195 136.636 78.004 136.63C79.6881 136.634 81.3729 136.634 83.057 136.641C83.057 136.634 83.057 136.626 83.057 136.619C91.9509 136.603 100.846 136.597 109.735 136.528C111.002 136.518 113.075 136.413 114.24 135.926C115.111 135.563 115.904 135.057 116.597 134.439C119.07 132.233 119.951 126.436 119.76 123.072C119.691 121.867 119.565 120.662 119.412 119.459C118.972 115.989 118.156 110.357 117.108 107.023C116.533 105.194 115.846 103.399 115.092 101.63C113.541 97.9858 110.318 92.421 107.816 89.3522C105.856 86.9481 100.178 82.4642 95.2211 78.206C94.9625 77.9787 94.6926 77.7652 94.4376 77.534C93.6665 76.8354 92.6588 75.9206 91.6914 74.9549C91.1458 74.3746 90.6221 73.7734 90.1368 73.1374C89.3392 72.0919 88.2123 70.233 88.05 68.91C88.05 68.8795 88.0307 68.8498 88.0307 68.8191C88.0113 68.652 88.0307 68.487 88.0307 68.3209C88.0307 68.1546 88.0113 67.9894 88.0307 67.8224C88.0307 67.7919 88.05 67.7625 88.05 67.732C88.2123 66.409 89.339 64.5497 90.1368 63.504C90.6227 62.8673 91.1467 62.2655 91.6931 61.6846C92.6598 60.7196 93.6668 59.8056 94.4376 59.1074C94.6926 58.8762 94.9625 58.6627 95.2211 58.4354C100.178 54.1772 105.856 49.6934 107.816 47.2892C110.318 44.2204 113.541 38.6556 115.092 35.0119C115.846 33.2428 116.533 31.447 117.108 29.6188C118.156 26.2848 118.972 20.6519 119.412 17.182C119.565 15.979 119.692 14.7741 119.76 13.5697C119.952 10.2054 119.07 4.40794 116.597 2.20253C115.904 1.5845 115.111 1.07879 114.24 0.715129C113.075 0.228346 111.002 0.123018 109.735 0.113208C100.846 0.0444561 91.9509 0.0382758 83.057 0.0230195C83.0572 0.0152966 83.0572 0.00757369 83.057 0.000425466C81.3729 0.00814837 79.6881 0.0062126 78.004 0.0120199C76.3195 0.00814837 74.6347 0.00814837 72.9508 0.000425466V0Z" fill="#FF5E5B"/>
<path d="M15.0628 29.767C23.3818 29.767 30.1257 23.1034 30.1257 14.8835C30.1257 6.66357 23.3818 0 15.0628 0C6.74386 0 0 6.66357 0 14.8835C0 23.1034 6.74386 29.767 15.0628 29.767Z" fill="#FF5E5B"/>
<path d="M141.483 137C149.703 137 156.367 130.256 156.367 121.937C156.367 113.618 149.703 106.874 141.483 106.874C133.263 106.874 126.6 113.618 126.6 121.937C126.6 130.256 133.263 137 141.483 137Z" fill="#FF5E5B"/>
</svg>
